<svg xmlns="http://www.w3.org/2000/svg" version="1.1" xmlns:xlink="http://www.w3.org/1999/xlink" xmlns:svgjs="http://svgjs.dev/svgjs" width="2000" height="1252" viewBox="0 0 2000 1252"><g transform="matrix(1,0,0,1,-1.2121212121212466,-2.01935483870966)"><svg viewBox="0 0 396 248" data-background-color="#4a5d5e" preserveAspectRatio="xMidYMid meet" height="1252" width="2000" xmlns="http://www.w3.org/2000/svg" xmlns:xlink="http://www.w3.org/1999/xlink"><g id="tight-bounds" transform="matrix(1,0,0,1,0.2400000000000091,0.4000000000000057)"><svg viewBox="0 0 395.52 247.2" height="247.2" width="395.52"><g><svg></svg></g><g><svg viewBox="0 0 395.52 247.2" height="247.2" width="395.52"><mask id="0cf0274e-cf10-42d8-8053-705b368027bc"><rect width="395.52" height="247.2" fill="white"></rect><g transform="matrix(1,0,0,1,112.81049504950495,37.08)" id="clone"><svg viewBox="0 0 169.89900990099008 173.04" height="173.04" width="169.89900990099008"><g><svg viewBox="0 0 169.89900990099008 173.04" height="173.04" width="169.89900990099008"><g><svg viewBox="0 0 169.89900990099008 173.04" height="173.04" width="169.89900990099008"><g><svg viewBox="0 0 169.89900990099008 173.04" height="173.04" width="169.89900990099008"><g id="SvgjsG1012"><svg viewBox="0 0 169.89900990099008 173.04" height="173.04" width="169.89900990099008" id="SvgjsSvg1011"><g><svg viewBox="0 0 169.89900990099008 173.04" height="173.04" width="169.89900990099008"><g transform="matrix(1,0,0,1,0,0)"><svg width="169.89900990099008" viewBox="-1.8 -27.5 30.75 31.3" height="173.04" data-palette-color="#d2dbc8"><path d="M6.4 0.8L6.4 0.8Q3.6 0.8 2.4-1.48 1.2-3.75 1.2-7.85L1.2-7.85Q1.2-11.5 2.27-14.55 3.35-17.6 5.2-19.83 7.05-22.05 9.5-23.28 11.95-24.5 14.7-24.5L14.7-24.5Q16.85-24.5 18.63-23.93 20.4-23.35 21.65-22.75L21.65-22.75 20.2-17.5Q18.85-18.4 17.18-19.15 15.5-19.9 14.08-20.33 12.65-20.75 11.95-20.75L11.95-20.75Q10.55-20.75 9.38-19.38 8.2-18 7.53-15.58 6.85-13.15 6.85-10L6.85-10Q6.85-7.1 7.28-5.6 7.7-4.1 8.65-4.1L8.65-4.1Q9.3-4.1 10.85-5.58 12.4-7.05 14.6-10.5 16.8-13.95 19.25-19.85L19.25-19.85 20.65-15.4Q17.95-9.4 15.5-5.85 13.05-2.3 10.8-0.75 8.55 0.8 6.4 0.8ZM21.85 0.5L18.35 0.5Q17.35 0.5 17.15-0.48 16.95-1.45 16.95-2.55L16.95-2.55Q16.95-3.4 17.18-4.65 17.4-5.9 17.75-7.35 18.1-8.8 18.5-10.2L18.5-10.2 19.6-13.95 18.15-15.25 19.35-22.8Q20.95-23.05 22.18-23.45 23.4-23.85 24.23-24.15 25.05-24.45 25.4-24.45L25.4-24.45Q25.95-24.45 25.95-23.85L25.95-23.85Q25.95-23.6 25.33-21.73 24.7-19.85 23.98-16.95 23.25-14.05 22.9-10.65L22.9-10.65 21.85 0.5Z" opacity="1" transform="matrix(1,0,0,1,0,0)" fill="black" class="wordmark-text-0" id="SvgjsPath1010" stroke-width="5" stroke="black" stroke-linejoin="round"></path></svg></g></svg></g></svg></g></svg></g></svg></g></svg></g></svg></g></mask><g mask="url(#0cf0274e-cf10-42d8-8053-705b368027bc)"><g><path d="M120.218 216.493v0c-4.723 0-7.085-1.487-7.085-4.461v0c0-1.4 0.7-3.674 2.099-6.823v0l77.936-157.183c1.225-2.624 3.761-5.248 7.61-7.872 3.849-2.624 8.485-4.863 13.907-6.718 5.423-1.819 11.021-2.729 16.795-2.729v0c1.4 0 2.764 0.437 4.093 1.312 1.295 0.875 2.204 2.974 2.729 6.298v0c2.974 20.118 6.56 40.324 10.759 60.617 4.199 20.293 9.009 40.149 14.433 59.566v0c2.449 8.222 4.548 14.87 6.297 19.944 1.749 5.073 3.499 8.922 5.249 11.546v0c1.924 2.624 3.639 4.758 5.143 6.402 1.469 1.679 2.204 3.306 2.204 4.881v0c0 1.749-0.997 3.499-2.991 5.248-2.029 1.749-4.531 3.324-7.505 4.724-2.974 1.4-6.035 2.537-9.185 3.411-3.149 0.875-5.86 1.312-8.134 1.312v0c-3.849 0-7.785-3.464-11.809-10.391-4.024-6.893-7.96-19.348-11.808-37.367v0l-22.83-109.425 4.986-3.149-51.17 107.588c-2.274 4.898-3.884 9.009-4.828 12.333-0.98 3.324-1.557 6.333-1.732 9.027-0.175 2.729-0.525 5.843-1.05 9.342v0c-0.35 3.324-2.012 6.333-4.986 9.027-2.974 2.729-6.438 5.091-10.391 7.085-3.919 2.029-7.627 3.621-11.126 4.775-3.499 1.12-6.035 1.679-7.61 1.68zM250.898 162.961h-97.616v-19.68h97.616z" fill="#d2dbc8" fill-rule="nonzero" stroke="none" stroke-width="1" stroke-linecap="butt" stroke-linejoin="miter" stroke-miterlimit="10" stroke-dasharray="" stroke-dashoffset="0" font-family="none" font-weight="none" font-size="none" text-anchor="none" style="mix-blend-mode: normal" data-fill-palette-color="tertiary"></path></g></g><g transform="matrix(1,0,0,1,112.81049504950495,37.08)"><svg viewBox="0 0 169.89900990099008 173.04" height="173.04" width="169.89900990099008"><g><svg viewBox="0 0 169.89900990099008 173.04" height="173.04" width="169.89900990099008"><g><svg viewBox="0 0 169.89900990099008 173.04" height="173.04" width="169.89900990099008"><g><svg viewBox="0 0 169.89900990099008 173.04" height="173.04" width="169.89900990099008"><g id="textblocktransform"><svg viewBox="0 0 169.89900990099008 173.04" height="173.04" width="169.89900990099008" id="textblock"><g><svg viewBox="0 0 169.89900990099008 173.04" height="173.04" width="169.89900990099008"><g transform="matrix(1,0,0,1,0,0)"><svg width="169.89900990099008" viewBox="-1.8 -27.5 30.75 31.3" height="173.04" data-palette-color="#d2dbc8"><path d="M6.4 0.8L6.4 0.8Q3.6 0.8 2.4-1.48 1.2-3.75 1.2-7.85L1.2-7.85Q1.2-11.5 2.27-14.55 3.35-17.6 5.2-19.83 7.05-22.05 9.5-23.28 11.95-24.5 14.7-24.5L14.7-24.5Q16.85-24.5 18.63-23.93 20.4-23.35 21.65-22.75L21.65-22.75 20.2-17.5Q18.85-18.4 17.18-19.15 15.5-19.9 14.08-20.33 12.65-20.75 11.95-20.75L11.95-20.75Q10.55-20.75 9.38-19.38 8.2-18 7.53-15.58 6.85-13.15 6.85-10L6.85-10Q6.85-7.1 7.28-5.6 7.7-4.1 8.65-4.1L8.65-4.1Q9.3-4.1 10.85-5.58 12.4-7.05 14.6-10.5 16.8-13.95 19.25-19.85L19.25-19.85 20.65-15.4Q17.95-9.4 15.5-5.85 13.05-2.3 10.8-0.75 8.55 0.8 6.4 0.8ZM21.85 0.5L18.35 0.5Q17.35 0.5 17.15-0.48 16.95-1.45 16.95-2.55L16.95-2.55Q16.95-3.4 17.18-4.65 17.4-5.9 17.75-7.35 18.1-8.8 18.5-10.2L18.5-10.2 19.6-13.95 18.15-15.25 19.35-22.8Q20.95-23.05 22.18-23.45 23.4-23.85 24.23-24.15 25.05-24.45 25.4-24.45L25.4-24.45Q25.95-24.45 25.95-23.85L25.95-23.85Q25.95-23.6 25.33-21.73 24.7-19.85 23.98-16.95 23.25-14.05 22.9-10.65L22.9-10.65 21.85 0.5Z" opacity="1" transform="matrix(1,0,0,1,0,0)" fill="#d2dbc8" class="wordmark-text-0" data-fill-palette-color="primary" id="text-0"></path></svg></g></svg></g></svg></g></svg></g></svg></g></svg></g></svg></g></svg></g><defs></defs></svg><rect width="395.52" height="247.2" fill="none" stroke="none" visibility="hidden"></rect></g></svg></g></svg>